<svg xmlns="http://www.w3.org/2000/svg" viewBox="0 0 32 32" fill="none">
  <!-- Background circle -->
  <circle cx="16" cy="16" r="16" fill="#3B82F6"/>
  
  <!-- Link icon -->
  <g transform="translate(8, 8)">
    <!-- First link -->
    <path d="M6.5 3.5C5.67 3.5 5 4.17 5 5v6c0 .83.67 1.5 1.5 1.5h3c.83 0 1.5-.67 1.5-1.5V9.5" 
          stroke="white" stroke-width="1.5" stroke-linecap="round" fill="none"/>
    
    <!-- Second link -->
    <path d="M9.5 12.5c.83 0 1.5-.67 1.5-1.5V5c0-.83-.67-1.5-1.5-1.5h-3C5.67 3.5 5 4.17 5 5v1.5" 
          stroke="white" stroke-width="1.5" stroke-linecap="round" fill="none"/>
    
    <!-- Connection line -->
    <path d="M7.5 6.5h1" stroke="white" stroke-width="1.5" stroke-linecap="round"/>
  </g>
  
  <!-- Bookmark corner -->
  <path d="M22 6v12l-3-2-3 2V6h6z" fill="white" opacity="0.9"/>
</svg>